<?xml version="1.0" encoding="UTF-8"?>
<svg id="Layer_1" xmlns="http://www.w3.org/2000/svg" version="1.1" viewBox="0 0 121 55">
  <!-- Generator: Adobe Illustrator 29.2.1, SVG Export Plug-In . SVG Version: 2.1.0 Build 116)  -->
  <defs>
    <style>
      .st0 {
        fill: #1d2956;
      }
    </style>
  </defs>
  <path class="st0" d="M28.1,21.1c-3.3,0-6.4,1-9,2.9V3h-6.4v32.9h0v.5c0,8.5,6.9,15.4,15.4,15.4s15.4-6.9,15.4-15.4-6.9-15.4-15.4-15.4h0ZM37.2,36.5c0,5-4.1,9-9,9s-8.8-3.8-9-8.6v-.9c.2-4.8,4.2-8.6,9-8.6s9,4.1,9,9h0Z"/>
  <path class="st0" d="M68.7,42.5l-.4.4c-1.7,1.7-4,2.7-6.4,2.7-5,0-9-4.1-9-9s4.1-9,9-9,4.7.9,6.4,2.6l.4.4,4.5-4.5-.4-.4c-2.9-2.9-6.8-4.5-10.9-4.5-8.5,0-15.4,6.9-15.4,15.4s6.9,15.4,15.4,15.4,8-1.6,10.9-4.5l.4-.4-4.5-4.5h0Z"/>
  <path class="st0" d="M108.3,21.1h-6.4v15.7c0,4.9-4.1,8.8-9,8.8s-9-4.1-9-9v-15.4h-6.4v15.4c0,8.5,6.9,15.4,15.4,15.4s15.4-6.9,15.4-15.4v-15.4h0Z"/>
</svg>