<svg xmlns="http://www.w3.org/2000/svg" viewBox="0 0 311.43 102.75">
  <rect width="311.43" height="102.75" rx="20" fill="#16121f"/>
  <path fill="#ffffff" d="M102.77,11.38v39.99c0,27.94-22.54,50.66-50.25,50.66-.08,0-.17,0-.25,0-.18,0-.35,0-.53,0C23.93,102.04,1.08,79.29.71,51.28c-.02-1.55.24-3.11.86-4.54,1.76-4.04,5.62-6.44,9.73-6.44h30.64V11.38c0-5.9,4.74-10.68,10.59-10.68h39.66c5.85,0,10.59,4.78,10.59,10.68ZM204.82,6.04c-1.9-3.3-5.41-5.33-9.2-5.33h-77.52c-3.8,0-7.31,2.03-9.2,5.33-1.9,3.3-1.9,7.36,0,10.66l19.59,34.02-19.59,34.02c-1.9,3.3-1.9,7.36,0,10.66,1.9,3.3,5.41,5.33,9.2,5.33h77.52c4.7,0,8.96-3.11,10.27-7.88.76-2.78.28-5.76-1.16-8.27l-19.5-33.86,19.59-34.02c1.9-3.3,1.9-7.36,0-10.66ZM304.16,1.78c-3.97-1.65-8.54-.74-11.57,2.31l-31.88,31.93-31.88-31.93c-3.04-3.04-7.61-3.95-11.57-2.31-3.97,1.65-6.56,5.53-6.56,9.83v78.9c0,5.87,4.76,10.64,10.62,10.64h78.77c5.87,0,10.62-4.76,10.62-10.64V11.6c0-4.3-2.59-8.18-6.56-9.83Z"/>
</svg>
